<svg width="24" height="24" viewBox="0 0 24 24" fill="none" xmlns="http://www.w3.org/2000/svg">
<path d="M19.499 2.99951H17.249V2.24951C17.249 2.0506 17.17 1.85983 17.0294 1.71918C16.8887 1.57853 16.6979 1.49951 16.499 1.49951C16.3001 1.49951 16.1093 1.57853 15.9687 1.71918C15.828 1.85983 15.749 2.0506 15.749 2.24951V2.99951H8.24902V2.24951C8.24902 2.0506 8.17001 1.85983 8.02935 1.71918C7.8887 1.57853 7.69794 1.49951 7.49902 1.49951C7.30011 1.49951 7.10935 1.57853 6.96869 1.71918C6.82804 1.85983 6.74902 2.0506 6.74902 2.24951V2.99951H4.49902C4.10132 2.9999 3.72002 3.15807 3.4388 3.43929C3.15758 3.7205 2.99942 4.10181 2.99902 4.49951V19.4995C2.99942 19.8972 3.15758 20.2785 3.4388 20.5597C3.72002 20.841 4.10132 20.9991 4.49902 20.9995H19.499C19.8967 20.9991 20.278 20.841 20.5592 20.5597C20.8405 20.2785 20.9986 19.8972 20.999 19.4995V4.49951C20.9986 4.10181 20.8405 3.7205 20.5592 3.43929C20.278 3.15807 19.8967 2.9999 19.499 2.99951ZM19.499 7.49951H4.49902V4.49951H6.74902V5.24951C6.74902 5.44842 6.82804 5.63919 6.96869 5.77984C7.10935 5.92049 7.30011 5.99951 7.49902 5.99951C7.69794 5.99951 7.8887 5.92049 8.02935 5.77984C8.17001 5.63919 8.24902 5.44842 8.24902 5.24951V4.49951H15.749V5.24951C15.749 5.44842 15.828 5.63919 15.9687 5.77984C16.1093 5.92049 16.3001 5.99951 16.499 5.99951C16.6979 5.99951 16.8887 5.92049 17.0294 5.77984C17.17 5.63919 17.249 5.44842 17.249 5.24951V4.49951H19.499V7.49951Z" fill="#E7490F"/>
</svg>
