<svg width="24" height="24" viewBox="0 0 24 24" fill="none" xmlns="http://www.w3.org/2000/svg">
<path d="M19.2228 14.7455L15.4696 13.137C15.2736 13.0527 15.0596 13.0187 14.8472 13.0382C14.6347 13.0577 14.4306 13.1301 14.2533 13.2488L12.2465 14.5864C11.0201 13.9899 10.0274 13.0016 9.42548 11.7778L9.42563 11.7777L10.7586 9.7409C10.8746 9.56408 10.945 9.36126 10.9635 9.15057C10.982 8.93989 10.9479 8.72791 10.8644 8.53361L9.25442 4.77721C9.14482 4.52223 8.95559 4.3096 8.71503 4.17117C8.47448 4.03274 8.19556 3.97595 7.92004 4.00931C6.83735 4.14852 5.84237 4.67712 5.12098 5.49637C4.39958 6.31562 4.00111 7.36947 4 8.46107C4 14.8237 9.17632 20 15.539 20C16.6306 19.9989 17.6844 19.6004 18.5037 18.879C19.3229 18.1576 19.8515 17.1626 19.9907 16.0799C20.024 15.8044 19.9672 15.5255 19.8287 15.2849C19.6903 15.0444 19.4777 14.8552 19.2228 14.7455Z" fill="#E7490F"/>
</svg>
