<svg width="20" height="26" viewBox="0 0 20 26" fill="none" xmlns="http://www.w3.org/2000/svg">
<path d="M9.99939 0.749512C7.44761 0.752539 5.00121 1.76757 3.19683 3.57195C1.39245 5.37633 0.377417 7.82273 0.37439 10.3745C0.37439 18.6101 9.12439 24.8308 9.49695 25.0914C9.64429 25.1943 9.81967 25.2495 9.99939 25.2495C10.1791 25.2495 10.3545 25.1943 10.5018 25.0914C10.8744 24.8308 19.6244 18.6101 19.6244 10.3745C19.6214 7.82273 18.6063 5.37633 16.8019 3.57195C14.9976 1.76757 12.5512 0.752539 9.99939 0.749512ZM10 6.87483C10.6923 6.87483 11.369 7.0801 11.9445 7.46469C12.5201 7.84927 12.9687 8.3959 13.2336 9.03544C13.4985 9.67498 13.5678 10.3787 13.4328 11.0576C13.2977 11.7366 12.9644 12.3602 12.4749 12.8497C11.9854 13.3392 11.3618 13.6725 10.6828 13.8076C10.0039 13.9426 9.30018 13.8733 8.66064 13.6084C8.0211 13.3435 7.47447 12.8949 7.08989 12.3193C6.7053 11.7438 6.50003 11.0671 6.50003 10.3748C6.50002 9.9152 6.59054 9.46007 6.76643 9.03542C6.94231 8.61078 7.20012 8.22493 7.52513 7.89993C7.85013 7.57492 8.23598 7.31711 8.66062 7.14122C9.08527 6.96534 9.5404 6.87482 10 6.87483Z" fill="#E7490F"/>
</svg>
