<svg width="166" height="76" viewBox="0 0 166 76" fill="none" xmlns="http://www.w3.org/2000/svg">
<path fill-rule="evenodd" clip-rule="evenodd" d="M136.904 23.0674V42.2657H147.958V48.4268H129.056V23.0674H136.904Z" fill="white"/>
<path fill-rule="evenodd" clip-rule="evenodd" d="M118.185 23.0674V28.7714H103.24V32.8755H117.02V38.5795H103.24V42.7228H118.607V48.4268H95.3955V23.0674H118.185Z" fill="white"/>
<path fill-rule="evenodd" clip-rule="evenodd" d="M77.0662 48.4268H69.9689L60.0801 23.0674H68.2835L73.5999 38.4261L78.8175 23.0674H86.8892L77.0662 48.4268Z" fill="white"/>
<path fill-rule="evenodd" clip-rule="evenodd" d="M51.446 23.0674V28.7714H36.5008V32.8755H50.2807V38.5795H36.5008V42.7228H51.8673V48.4268H28.6562V23.0674H51.446Z" fill="white"/>
<path fill-rule="evenodd" clip-rule="evenodd" d="M8.48031 23.0674V42.2657H19.5345V48.4268H0.635742V23.0674H8.48031Z" fill="white"/>
<path fill-rule="evenodd" clip-rule="evenodd" d="M110.16 68.4186L107.346 68.6341C107.294 68.4056 107.165 68.2016 106.98 68.0562C106.666 67.8778 106.305 67.7939 105.943 67.8145C105.048 67.8145 104.6 68.0518 104.6 68.5263C104.596 68.6133 104.614 68.6999 104.653 68.7781C104.691 68.8563 104.749 68.9236 104.821 68.9736C105.09 69.1234 105.383 69.2261 105.687 69.2773L107.991 69.7997C108.661 69.9076 109.285 70.2046 109.788 70.6551C110.176 71.0837 110.376 71.6474 110.345 72.2223C110.347 72.7268 110.217 73.2233 109.966 73.6622C109.73 74.0859 109.38 74.4364 108.956 74.6744C107.949 75.1722 106.833 75.4113 105.71 75.3698C104.011 75.3698 102.837 75.0128 102.187 74.2989C101.753 73.7857 101.481 73.1563 101.407 72.4901L104.311 72.3823C104.449 73.0712 105.015 73.4141 106.016 73.4141C106.398 73.4342 106.778 73.3459 107.112 73.1594C107.236 73.0902 107.339 72.9891 107.411 72.8668C107.482 72.7444 107.519 72.6052 107.517 72.4639C107.517 72.0721 107.188 71.8109 106.566 71.6869L104.311 71.2461C102.619 70.9131 101.773 70.0827 101.773 68.7549C101.758 68.3357 101.851 67.9197 102.044 67.5466C102.237 67.1734 102.523 66.8554 102.875 66.6228C103.613 66.1135 104.64 65.8621 105.957 65.8621C107.466 65.8621 108.564 66.1341 109.249 66.6783C109.764 67.1223 110.091 67.7446 110.16 68.4186Z" fill="white"/>
<path fill-rule="evenodd" clip-rule="evenodd" d="M98.9445 68.4186L96.13 68.6341C96.0774 68.4053 95.9472 68.2013 95.7613 68.0562C95.4476 67.878 95.0885 67.7941 94.7276 67.8145C93.8322 67.8145 93.3845 68.0518 93.3845 68.5263C93.3796 68.6134 93.3973 68.7002 93.4359 68.7785C93.4746 68.8568 93.5328 68.924 93.6051 68.9736C93.8737 69.124 94.1667 69.2267 94.4708 69.2773L96.7752 69.7997C97.4447 69.9076 98.0688 70.2046 98.5725 70.6551C98.9589 71.0844 99.1588 71.6476 99.1289 72.2223C99.1316 72.7268 99.001 73.2232 98.7503 73.6622C98.5147 74.0872 98.1634 74.438 97.7364 74.6744C96.7316 75.1725 95.6165 75.4117 94.4939 75.3698C92.7953 75.3698 91.6212 75.0128 90.9716 74.2989C90.5369 73.7857 90.2654 73.1562 90.1914 72.4901L93.0915 72.3823C93.2298 73.0723 93.7993 73.4162 94.8 73.4141C95.1824 73.4342 95.5627 73.3459 95.8962 73.1594C96.0201 73.09 96.1228 72.9888 96.1935 72.8664C96.2641 72.744 96.3002 72.605 96.2978 72.4639C96.2978 72.0721 95.9687 71.8109 95.3498 71.6869L93.0915 71.2461C91.4039 70.9131 90.559 70.0826 90.5568 68.7549C90.542 68.3357 90.6356 67.9197 90.8286 67.5466C91.0216 67.1734 91.3077 66.8554 91.6596 66.6228C92.397 66.1135 93.4207 65.8621 94.7375 65.8621C96.2518 65.8621 97.349 66.1341 98.0294 66.6783C98.5455 67.1226 98.8726 67.7445 98.9445 68.4186Z" fill="white"/>
<path fill-rule="evenodd" clip-rule="evenodd" d="M87.5678 66.1428V68.1508H81.9485V69.5972H87.13V71.6052H81.9485V73.0679H87.7291V75.0759H78.999V66.1428H87.5678Z" fill="white"/>
<path fill-rule="evenodd" clip-rule="evenodd" d="M75.8157 66.1428V75.0759H73.4291L69.5513 70.2796V75.0759H66.7334V66.1428H69.1365L73.0011 70.962V66.1428H75.8157Z" fill="white"/>
<path fill-rule="evenodd" clip-rule="evenodd" d="M64.4556 66.1428V68.1508H61.5916V75.0759H58.6388V68.1508H55.7617V66.1428H64.4556Z" fill="white"/>
<path d="M53.4212 66.1428H50.4717V75.0759H53.4212V66.1428Z" fill="white"/>
<path fill-rule="evenodd" clip-rule="evenodd" d="M47.7884 66.1428V68.1508H42.765V69.865H47.3868V71.8729H42.765V75.0759H39.8154V66.1428H47.7884Z" fill="white"/>
<path d="M149.373 0V4.92692H160.967V21.4839H166V4.92692V4.53186V0H149.373Z" fill="#E7490F"/>
</svg>
