<svg width="28" height="28" viewBox="0 0 28 28" fill="none" xmlns="http://www.w3.org/2000/svg">
<path d="M13.2561 17.2755C14.4301 16.4957 15.3219 15.3586 15.7994 14.0325C16.2769 12.7065 16.3148 11.2619 15.9075 9.91263C15.5002 8.56335 14.6694 7.38105 13.5379 6.54069C12.4064 5.70034 11.0345 5.24658 9.62504 5.24658C8.21563 5.24658 6.84366 5.70034 5.71218 6.54069C4.5807 7.38105 3.74983 8.56335 3.34254 9.91263C2.93524 11.2619 2.97316 12.7065 3.45069 14.0325C3.92821 15.3586 4.81997 16.4957 5.99398 17.2755C3.99264 18.0138 2.26291 19.3428 1.03409 21.0865C0.941832 21.2175 0.88734 21.3714 0.876556 21.5313C0.865772 21.6912 0.899112 21.851 0.972937 21.9933C1.04676 22.1355 1.15824 22.2548 1.2952 22.338C1.43216 22.4212 1.58935 22.4652 1.74962 22.4652L17.5001 22.4646C17.6604 22.4646 17.8176 22.4206 17.9545 22.3374C18.0915 22.2541 18.2029 22.1349 18.2767 21.9926C18.3506 21.8504 18.3839 21.6906 18.3731 21.5307C18.3623 21.3708 18.3077 21.2169 18.2155 21.0859C16.9867 19.3425 15.2572 18.0137 13.2561 17.2755Z" fill="#E7490F"/>
<path d="M27.1319 21.0859C25.9031 19.3425 24.1736 18.0137 22.1725 17.2755C23.4735 16.4094 24.4228 15.1075 24.8494 13.6039C25.276 12.1003 25.1519 10.4938 24.4996 9.07346C23.8472 7.65316 22.7094 6.51232 21.2908 5.85622C19.8722 5.20012 18.2661 5.07186 16.7614 5.4945C16.6248 5.53292 16.4995 5.60398 16.3965 5.70157C16.2935 5.79916 16.2158 5.92034 16.17 6.05466C16.1242 6.18898 16.1118 6.33242 16.1339 6.4726C16.1559 6.61279 16.2117 6.74551 16.2964 6.85934C17.2855 8.18802 17.8542 9.78244 17.929 11.4372C18.0039 13.0919 17.5816 14.7312 16.7165 16.1438C16.6023 16.3301 16.5619 16.5524 16.6032 16.7669C16.6446 16.9815 16.7648 17.1728 16.9402 17.3033C17.2719 17.5502 17.5911 17.8135 17.8965 18.0924C17.9123 18.1095 17.9282 18.1266 17.9456 18.1427C19.1135 19.2224 20.06 20.5191 20.7323 21.9605C20.8028 22.1113 20.9148 22.239 21.0553 22.3284C21.1957 22.4178 21.3588 22.4653 21.5253 22.4652L26.4166 22.4647C26.5768 22.4646 26.734 22.4206 26.871 22.3374C27.0079 22.2541 27.1194 22.1349 27.1932 21.9926C27.267 21.8503 27.3003 21.6906 27.2895 21.5307C27.2787 21.3708 27.2242 21.2169 27.1319 21.0859L27.1319 21.0859Z" fill="#E7490F"/>
</svg>
