<svg width="28" height="28" viewBox="0 0 28 28" fill="none" xmlns="http://www.w3.org/2000/svg">
<path d="M14 17.9375C16.6579 17.9375 18.8125 15.7829 18.8125 13.125C18.8125 10.4671 16.6579 8.3125 14 8.3125C11.3421 8.3125 9.1875 10.4671 9.1875 13.125C9.1875 15.7829 11.3421 17.9375 14 17.9375Z" fill="#E7490F"/>
<path d="M22.75 3.5H5.25C4.78603 3.50053 4.34122 3.68508 4.01315 4.01315C3.68508 4.34122 3.50053 4.78603 3.5 5.25V22.75C3.50053 23.214 3.68508 23.6588 4.01315 23.9869C4.34122 24.3149 4.78603 24.4995 5.25 24.5H22.75C23.214 24.4995 23.6588 24.3149 23.9869 23.9869C24.3149 23.6588 24.4995 23.214 24.5 22.75V5.25C24.4995 4.78603 24.3149 4.34122 23.9869 4.01315C23.6588 3.68508 23.214 3.50053 22.75 3.5ZM22.75 22.75H22.3482C21.8281 21.1064 20.8367 19.6518 19.4969 18.5669C19.1857 18.3159 18.8574 18.0868 18.5145 17.8812C17.2975 19.0407 15.681 19.6875 14 19.6875C12.319 19.6875 10.7025 19.0407 9.48548 17.8812C9.14257 18.0868 8.81431 18.3159 8.50305 18.5669C7.16334 19.6518 6.17187 21.1064 5.65176 22.75H5.25V5.25H22.75L22.7511 22.7499L22.75 22.75Z" fill="#E7490F"/>
</svg>
